::Release Info::
================
Release Title: The Riddle Of The Sands (1979) Tony Maylam
Encode date:

::IMDB and TMDB Info::
======================
TMDB Link: http://www.themoviedb.org/movie/11765
IMDB Link: http://www.imdb.com/title/tt0079808
Storyline: In the early years of the 20th Century, two British yachtsmen (Michael York and Simon MacCorkindale) stumble upon a German plot to invade the east coast of England in a flotilla of specially designed barges. They set out to thwart this terrible scheme, but must outwit not only the cream of the German Navy, but the feared Kaiser Wilhelm himself.
Genre: Action
Release date: 02/10/1979

::Actors::
==========
Simon MacCorkindale ... Arthur Davies
Michael York ... Charles Carruthers
Jenny Agutter ... Clara Dollmann
Alan Badel ... Dollmann
Jürgen Andersen ... Von Brüning
Michael Sheard ... Boehme
Olga Lowe ... Frau Dollmann
Hans Meyer ... Grimm
Wolf Kahler ... Kaiser Wilhelm II
Ronald Markham ... Withers

General
=======
Complete name : The Riddle Of The Sands (1979) Tony Maylam.avi
Format : AVI
Format/Info : Audio Video Interleave
File size : 875 MiB
Duration : 1h 38mn
Overall bit rate : 1 247 Kbps
Writing application : Lavf52.94.0
Comment : www.freemake.com

Video
=====
ID : 0
Format : AVC
Format/Info : Advanced Video Codec
Format profile : Main@L3.0
Format settings, CABAC : Yes
Format settings, ReFrames : 2 frames
Codec ID : H264
Duration : 1h 38mn
Bit rate : 966 Kbps
Width : 640 pixels
Height : 360 pixels
Display aspect ratio : 16:9
Frame rate mode : Variable
Frame rate : 29.970 fps
Color space : YUV
Chroma subsampling : 4:2:0
Bit depth : 8 bits
Scan type : Progressive
Bits/(Pixel*Frame) : 0.140
Stream size : 686 MiB (78%)
Writing library : x264 core 112 r1834 a51816a

Audio
=====
ID : 1
Format : MPEG Audio
Format version : Version 1
Format profile : Layer 3
Mode : Joint stereo
Mode extension : MS Stereo
Codec ID : 55
Codec ID/Hint : MP3
Duration : 1h 38mn
Bit rate mode : Constant
Bit rate : 256 Kbps
Channel(s) : 2 channels
Sampling rate : 44.1 KHz
Compression mode : Lossy
Stream size : 180 MiB (21%)
Alignment : Aligned on interleaves
Interleave, duration : 26 ms (0.78 video frame)
Writing library : LAME3.98.4